# xmcd
#
# Track frame offsets:
#	150
#	15519
#	30036
#	48129
#	65068
#	79897
#	98483
#	114251
#	136604
#	158304
#	177622
#	196468
#
# Disc length: 2857 seconds
#
# Revision: 0
# Processed by: cddbd v1.5.2PL0 Copyright (c) Steve Scherf et al.
# Submitted via: audiograbber 1.83.01
#
DISCID=820b270c
DTITLE=Rosalino Cassol - Politica é uma Sarna
DYEAR=2005
DGENRE=Gaucha
TTITLE0=Loco de Bom
TTITLE1=A Enfiada que eu Levei
TTITLE2=Promessas de Campanha
TTITLE3=Araucaria Sobrevivente
TTITLE4=Burro Pinhão
TTITLE5=Deu um Treco no Veinho
TTITLE6=Mais um Dia de Lida
TTITLE7=Politica é uma Sarna
TTITLE8=O Negocio da Maria
TTITLE9=Retalhos de Campo
TTITLE10=Exibidinha
TTITLE11=Que Maquina
EXTD=
EXTT0=
EXTT1=
EXTT2=
EXTT3=
EXTT4=
EXTT5=
EXTT6=
EXTT7=
EXTT8=
EXTT9=
EXTT10=
EXTT11=
PLAYORDER=
